<svg width="40" height="40" viewBox="0 0 40 40" fill="none" xmlns="http://www.w3.org/2000/svg">
<path d="M31.8547 14.6567C31.7109 14.144 31.431 13.6798 31.0445 13.3135C30.6472 12.936 30.1601 12.6659 29.6294 12.5288C27.6432 12.0052 19.6857 12.0052 19.6857 12.0052C16.3683 11.9675 13.0517 12.1335 9.75469 12.5023C9.22397 12.6496 8.73786 12.9257 8.3396 13.3061C7.94828 13.6826 7.66484 14.1469 7.51677 14.6556C7.16109 16.5718 6.98827 18.5174 7.00065 20.4662C6.98796 22.4133 7.16035 24.3582 7.51677 26.2767C7.66166 26.7833 7.94405 27.2455 8.33642 27.6188C8.7288 27.9922 9.21742 28.2619 9.75469 28.4047C11.7673 28.9271 19.6857 28.9271 19.6857 28.9271C23.0073 28.9649 26.3281 28.7989 29.6294 28.43C30.1601 28.2929 30.6472 28.0229 31.0445 27.6453C31.4358 27.2719 31.714 26.8077 31.8536 26.3021C32.2186 24.3867 32.396 22.4403 32.3835 20.4905C32.4109 18.5324 32.2337 16.5769 31.8547 14.6556V14.6567ZM17.1559 24.0875V16.846L23.7766 20.4672L17.1559 24.0875Z" fill="#001E48"/>
</svg>
